<?xml version="1.0" encoding="UTF-8" standalone="no"?>
<!-- Created with Inkscape (http://www.inkscape.org/) -->

<svg
   xmlns:dc="http://purl.org/dc/elements/1.1/"
   xmlns:cc="http://creativecommons.org/ns#"
   xmlns:rdf="http://www.w3.org/1999/02/22-rdf-syntax-ns#"
   xmlns:svg="http://www.w3.org/2000/svg"
   xmlns="http://www.w3.org/2000/svg"
   xmlns:sodipodi="http://sodipodi.sourceforge.net/DTD/sodipodi-0.dtd"
   xmlns:inkscape="http://www.inkscape.org/namespaces/inkscape"
   width="100"
   height="100"
   id="svg2"
   version="1.1"
   inkscape:version="0.48.4 r9939"
   sodipodi:docname="New document 1">
  <defs
     id="defs4" />
  <sodipodi:namedview
     id="base"
     pagecolor="#ffffff"
     bordercolor="#666666"
     borderopacity="1.0"
     inkscape:pageopacity="0.0"
     inkscape:pageshadow="2"
     inkscape:zoom="6.35"
     inkscape:cx="50"
     inkscape:cy="50"
     inkscape:document-units="px"
     inkscape:current-layer="layer1"
     showgrid="false"
     inkscape:window-width="1107"
     inkscape:window-height="1012"
     inkscape:window-x="0"
     inkscape:window-y="0"
     inkscape:window-maximized="0" />
  <metadata
     id="metadata7">
    <rdf:RDF>
      <cc:Work
         rdf:about="">
        <dc:format>image/svg+xml</dc:format>
        <dc:type
           rdf:resource="http://purl.org/dc/dcmitype/StillImage" />
        <dc:title></dc:title>
      </cc:Work>
    </rdf:RDF>
  </metadata>
  <g
     inkscape:label="Layer 1"
     inkscape:groupmode="layer"
     id="layer1"
     transform="translate(0,-952.36218)">
    <g
       id="g3790"
       transform="translate(15,-26.000003)">
      <rect
         ry="7.0627007"
         rx="5.8398786"
         y="1006.3622"
         x="0"
         height="46"
         width="70"
         id="rect3753"
         style="fill:#000000;fill-opacity:1;stroke:none" />
      <path
         transform="matrix(0.79023716,0,0,0.79023716,-2.0842235,1025.5345)"
         d="m 64.194916,4.9788136 c 0,9.5362724 -7.730676,17.2669484 -17.266949,17.2669484 -9.536272,0 -17.266949,-7.730676 -17.266949,-17.2669484 0,-9.5362724 7.730677,-17.2669486 17.266949,-17.2669486 9.536273,0 17.266949,7.7306762 17.266949,17.2669486 z"
         sodipodi:ry="17.266949"
         sodipodi:rx="17.266949"
         sodipodi:cy="4.9788136"
         sodipodi:cx="46.927967"
         id="path3755"
         style="fill:none;stroke:#ffffff;stroke-width:3.42938924;stroke-miterlimit:4;stroke-opacity:1;stroke-dasharray:none"
         sodipodi:type="arc" />
      <path
         transform="matrix(0.66243308,0,0,0.78167103,4.1532349,1011.6419)"
         d="m 48.516949,27.754238 c 0,2.925237 -2.798221,5.29661 -6.25,5.29661 -3.45178,0 -6.25,-2.371373 -6.25,-5.29661 0,-2.925237 2.79822,-5.29661 6.25,-5.29661 3.451779,0 6.25,2.371373 6.25,5.29661 z"
         sodipodi:ry="5.2966104"
         sodipodi:rx="6.25"
         sodipodi:cy="27.754238"
         sodipodi:cx="42.266949"
         id="path3757"
         style="fill:#ffffff;fill-opacity:1;stroke:#000000;stroke-width:1;stroke-miterlimit:4;stroke-opacity:1;stroke-dasharray:none"
         sodipodi:type="arc" />
      <path
         transform="matrix(0.36801838,0,0,0.43426168,24.207139,1011.5192)"
         d="m 48.516949,27.754238 c 0,2.925237 -2.798221,5.29661 -6.25,5.29661 -3.45178,0 -6.25,-2.371373 -6.25,-5.29661 0,-2.925237 2.79822,-5.29661 6.25,-5.29661 3.451779,0 6.25,2.371373 6.25,5.29661 z"
         sodipodi:ry="5.2966104"
         sodipodi:rx="6.25"
         sodipodi:cy="27.754238"
         sodipodi:cx="42.266949"
         id="path3757-1"
         style="fill:#ffffff;fill-opacity:1;stroke:#000000;stroke-width:1;stroke-miterlimit:4;stroke-opacity:1;stroke-dasharray:none"
         sodipodi:type="arc" />
      <rect
         ry="5.6772647"
         rx="0"
         y="1005.4043"
         x="9.6705647"
         height="5.6772647"
         width="7.7746153"
         id="rect3788"
         style="fill:#000000;fill-opacity:1;stroke:#000000;stroke-width:0.86573327;stroke-miterlimit:4;stroke-opacity:1;stroke-dasharray:none" />
    </g>
  </g>
</svg>
