<?xml version="1.0" encoding="UTF-8" standalone="no"?>
<!-- Created with Inkscape (http://www.inkscape.org/) -->

<svg
   xmlns:dc="http://purl.org/dc/elements/1.1/"
   xmlns:cc="http://creativecommons.org/ns#"
   xmlns:rdf="http://www.w3.org/1999/02/22-rdf-syntax-ns#"
   xmlns:svg="http://www.w3.org/2000/svg"
   xmlns="http://www.w3.org/2000/svg"
   xmlns:sodipodi="http://sodipodi.sourceforge.net/DTD/sodipodi-0.dtd"
   xmlns:inkscape="http://www.inkscape.org/namespaces/inkscape"
   width="100"
   height="100"
   id="svg2"
   version="1.1"
   inkscape:version="0.48.4 r9939"
   sodipodi:docname="New document 1">
  <defs
     id="defs4" />
  <sodipodi:namedview
     id="base"
     pagecolor="#ffffff"
     bordercolor="#666666"
     borderopacity="1.0"
     inkscape:pageopacity="0.0"
     inkscape:pageshadow="2"
     inkscape:zoom="1.9056528"
     inkscape:cx="-1.1646107"
     inkscape:cy="193.47947"
     inkscape:document-units="px"
     inkscape:current-layer="layer1"
     showgrid="false"
     inkscape:window-width="1024"
     inkscape:window-height="1256"
     inkscape:window-x="0"
     inkscape:window-y="24"
     inkscape:window-maximized="1" />
  <metadata
     id="metadata7">
    <rdf:RDF>
      <cc:Work
         rdf:about="">
        <dc:format>image/svg+xml</dc:format>
        <dc:type
           rdf:resource="http://purl.org/dc/dcmitype/StillImage" />
        <dc:title></dc:title>
      </cc:Work>
    </rdf:RDF>
  </metadata>
  <g
     inkscape:label="Layer 1"
     inkscape:groupmode="layer"
     id="layer1"
     transform="translate(0,-952.36218)">
    <rect
       style="fill:#39b54a;fill-opacity:1;fill-rule:nonzero;stroke:#000000;stroke-width:0.2;stroke-linecap:round;stroke-linejoin:round;stroke-miterlimit:4;stroke-opacity:1;stroke-dasharray:none;stroke-dashoffset:0"
       id="rect3816"
       width="76.089409"
       height="76.089409"
       x="8.9208279"
       y="10.791723"
       transform="matrix(1.1797181,0,0,1.1797181,-5.4060903,944.74896)"
       ry="9.0927696" />
    <g
       id="layer1-9"
       inkscape:label="Layer 1"
       transform="matrix(0.67175443,0,0,0.67175443,11.666418,321.35776)"
       style="fill:#ffffff;fill-opacity:1;stroke-width:0.2;stroke-miterlimit:4;stroke-dasharray:none">
      <path
         sodipodi:nodetypes="csccssscccccccccscc"
         transform="matrix(1.3284465,0,0,1.3286142,-513.61283,425.92595)"
         inkscape:connector-curvature="0"
         id="path3816"
         d="m 433.03125,409.15625 c -2.65991,0 -4.8125,2.15259 -4.8125,4.8125 0,1.31426 0.52151,2.506 1.375,3.375 -2.93866,-0.78283 -5.97316,-0.68163 -9.03125,-0.0312 0.74627,-0.84828 1.21875,-1.93762 1.21875,-3.15625 0,-2.65991 -2.15259,-4.8125 -4.8125,-4.8125 -2.65991,0 -4.8125,2.15259 -4.8125,4.8125 0,2.17848 1.45267,3.99882 3.4375,4.59375 -1.48681,0.52808 -2.97351,1.12073 -4.46875,1.75 -8.79934,-0.55252 -16.87658,0.36812 -20.6875,10.125 5.17054,1.38162 10.42491,1.41211 14.25,-0.90625 -5.23066,15.51226 11.46627,28.91828 21.09375,29.6875 8.37316,-0.62064 25.12325,-16.76127 18.875,-29.6875 4.54569,1.30104 8.89181,2.84376 13.4375,0.375 -4.00366,-8.80981 -10.68978,-9.88976 -21.1875,-8.5625 -1.23256,-1.15529 -2.511,-2.047 -3.78125,-2.75 2.61701,-0.0495 4.71875,-2.18364 4.71875,-4.8125 0,-2.65991 -2.15259,-4.8125 -4.8125,-4.8125 z"
         style="fill:#ffffff;fill-opacity:1;stroke:#000000;stroke-width:0.15054229;stroke-linecap:butt;stroke-linejoin:miter;stroke-miterlimit:4;stroke-opacity:1;stroke-dasharray:none;display:inline" />
    </g>
    <path
       style="fill:#39b54a;fill-opacity:1;stroke:#42ac51;stroke-width:0.23061615;stroke-linecap:butt;stroke-linejoin:round;stroke-miterlimit:4;stroke-opacity:1;stroke-dasharray:none"
       d="M 12.893325,42.800341 C 30.634221,18.95289 43.244114,-2.1378099 50.474154,1.7881549 51.722505,2.5625023 52.448217,3.0477827 52.470496,3.7758823 53.090151,24.026384 14.686257,67.430803 12.742836,66.912622 12.79193,67.097729 9.982802,67.254921 9.169136,66.620443 3.5921393,62.271626 -18.792433,40.831106 -10.575139,31.910946 -4.094215,25.034785 2.1734777,34.693667 9.8903839,42.45176 c 0.9447461,0.949788 2.5831081,0.357325 3.0029411,0.348581 z"
       id="path3768-8"
       inkscape:connector-curvature="0"
       transform="matrix(0.72223053,0,0,0.72223053,52.782895,986.54223)"
       sodipodi:nodetypes="ccscscsc" />
    <path
       style="fill:#ffffff;fill-opacity:1;stroke:#000000;stroke-width:0.23061615;stroke-linecap:butt;stroke-linejoin:round;stroke-miterlimit:4;stroke-opacity:1;stroke-dasharray:none"
       d="M 12.893325,42.800341 C 30.634221,18.95289 43.244114,-2.1378099 50.474154,1.7881549 51.722505,2.5625023 52.448217,3.0477827 52.470496,3.7758823 53.090151,24.026384 14.686257,67.430803 12.742836,66.912622 12.79193,67.097729 9.982802,67.254921 9.169136,66.620443 3.5921393,62.271626 -18.792433,40.831106 -10.575139,31.910946 -4.094215,25.034785 2.1734777,34.693667 9.8903839,42.45176 c 0.9447461,0.949788 2.5831081,0.357325 3.0029411,0.348581 z"
       id="path3768"
       inkscape:connector-curvature="0"
       transform="matrix(0.61988995,0,0,0.61988995,52.39799,990.71095)"
       sodipodi:nodetypes="ccscscsc" />
  </g>
</svg>
