<?xml version="1.0" encoding="UTF-8" standalone="no"?>
<!-- Created with Inkscape (http://www.inkscape.org/) -->

<svg
   xmlns:dc="http://purl.org/dc/elements/1.1/"
   xmlns:cc="http://creativecommons.org/ns#"
   xmlns:rdf="http://www.w3.org/1999/02/22-rdf-syntax-ns#"
   xmlns:svg="http://www.w3.org/2000/svg"
   xmlns="http://www.w3.org/2000/svg"
   xmlns:sodipodi="http://sodipodi.sourceforge.net/DTD/sodipodi-0.dtd"
   xmlns:inkscape="http://www.inkscape.org/namespaces/inkscape"
   width="100"
   height="100"
   id="svg2"
   version="1.1"
   inkscape:version="0.48.4 r9939"
   sodipodi:docname="ggiraficon_offline.svg">
  <defs
     id="defs4" />
  <sodipodi:namedview
     id="base"
     pagecolor="#ffffff"
     bordercolor="#666666"
     borderopacity="1.0"
     inkscape:pageopacity="0.0"
     inkscape:pageshadow="2"
     inkscape:zoom="2.695"
     inkscape:cx="30.645796"
     inkscape:cy="-99.097116"
     inkscape:document-units="px"
     inkscape:current-layer="layer1"
     showgrid="false"
     inkscape:window-width="1024"
     inkscape:window-height="1256"
     inkscape:window-x="0"
     inkscape:window-y="24"
     inkscape:window-maximized="1" />
  <metadata
     id="metadata7">
    <rdf:RDF>
      <cc:Work
         rdf:about="">
        <dc:format>image/svg+xml</dc:format>
        <dc:type
           rdf:resource="http://purl.org/dc/dcmitype/StillImage" />
        <dc:title></dc:title>
      </cc:Work>
    </rdf:RDF>
  </metadata>
  <g
     inkscape:label="Layer 1"
     inkscape:groupmode="layer"
     id="layer1"
     transform="translate(0,-952.36218)">
    <rect
       style="fill:#0071bc;fill-opacity:1;fill-rule:nonzero;stroke:#000000;stroke-width:0.2;stroke-linecap:round;stroke-linejoin:round;stroke-miterlimit:4;stroke-opacity:1;stroke-dasharray:none;stroke-dashoffset:0"
       id="rect3816"
       width="76.089409"
       height="76.089409"
       x="8.9208279"
       y="10.791723"
       transform="matrix(1.1797181,0,0,1.1797181,-5.4060903,944.74896)"
       ry="9.0927696" />
    <g
       id="layer1-9"
       inkscape:label="Layer 1"
       transform="matrix(0.67175443,0,0,0.67175443,12.416418,321.3574)"
       style="fill:#ffffff;fill-opacity:1;stroke-width:0.2;stroke-miterlimit:4;stroke-dasharray:none">
      <path
         sodipodi:nodetypes="csccssscccccccccscc"
         transform="matrix(1.3284465,0,0,1.3286142,-513.61283,425.92595)"
         inkscape:connector-curvature="0"
         id="path3816"
         d="m 433.03125,409.15625 c -2.65991,0 -4.8125,2.15259 -4.8125,4.8125 0,1.31426 0.52151,2.506 1.375,3.375 -2.93866,-0.78283 -5.97316,-0.68163 -9.03125,-0.0312 0.74627,-0.84828 1.21875,-1.93762 1.21875,-3.15625 0,-2.65991 -2.15259,-4.8125 -4.8125,-4.8125 -2.65991,0 -4.8125,2.15259 -4.8125,4.8125 0,2.17848 1.45267,3.99882 3.4375,4.59375 -1.48681,0.52808 -2.97351,1.12073 -4.46875,1.75 -8.79934,-0.55252 -16.87658,0.36812 -20.6875,10.125 5.17054,1.38162 10.42491,1.41211 14.25,-0.90625 -5.23066,15.51226 11.46627,28.91828 21.09375,29.6875 8.37316,-0.62064 25.12325,-16.76127 18.875,-29.6875 4.54569,1.30104 8.89181,2.84376 13.4375,0.375 -4.00366,-8.80981 -10.68978,-9.88976 -21.1875,-8.5625 -1.23256,-1.15529 -2.511,-2.047 -3.78125,-2.75 2.61701,-0.0495 4.71875,-2.18364 4.71875,-4.8125 0,-2.65991 -2.15259,-4.8125 -4.8125,-4.8125 z"
         style="fill:#ffffff;fill-opacity:1;stroke:#000000;stroke-width:0.15054229;stroke-linecap:butt;stroke-linejoin:miter;stroke-miterlimit:4;stroke-opacity:1;stroke-dasharray:none;display:inline" />
    </g>
    <text
       xml:space="preserve"
       style="font-size:40px;font-style:normal;font-variant:normal;font-weight:normal;font-stretch:normal;line-height:125%;letter-spacing:0px;word-spacing:0px;fill:#000000;fill-opacity:1;stroke:none;font-family:Comic Sans MS;-inkscape-font-specification:Comic Sans MS"
       x="-70.317116"
       y="-76.842293"
       id="text3901"
       sodipodi:linespacing="125%"
       transform="translate(0,952.36218)"><tspan
         sodipodi:role="line"
         id="tspan3903"
         x="-70.317116"
         y="-76.842293" /></text>
    <text
       xml:space="preserve"
       style="font-size:40px;font-style:normal;font-variant:normal;font-weight:normal;font-stretch:normal;line-height:125%;letter-spacing:0px;word-spacing:0px;fill:#000000;fill-opacity:1;stroke:none;font-family:Dingbats;-inkscape-font-specification:Dingbats"
       x="-44.079384"
       y="-79.990814"
       id="text3905"
       sodipodi:linespacing="125%"
       transform="translate(0,952.36218)"><tspan
         sodipodi:role="line"
         id="tspan3907"
         x="-44.079384"
         y="-79.990814" /></text>
    <text
       xml:space="preserve"
       style="font-size:40px;font-style:normal;font-variant:normal;font-weight:normal;font-stretch:normal;line-height:125%;letter-spacing:0px;word-spacing:0px;fill:#000000;fill-opacity:1;stroke:none;font-family:Garuda;-inkscape-font-specification:Garuda"
       x="-93.931068"
       y="-63.723427"
       id="text3909"
       sodipodi:linespacing="125%"
       transform="translate(0,952.36218)"><tspan
         sodipodi:role="line"
         id="tspan3911"
         x="-93.931068"
         y="-63.723427" /></text>
    <text
       xml:space="preserve"
       style="font-size:40px;font-style:normal;font-variant:normal;font-weight:normal;font-stretch:normal;line-height:125%;letter-spacing:0px;word-spacing:0px;fill:#000000;fill-opacity:1;stroke:none;font-family:Arial;-inkscape-font-specification:Arial"
       x="-55.099232"
       y="-20.168797"
       id="text3913"
       sodipodi:linespacing="125%"
       transform="translate(0,952.36218)"><tspan
         sodipodi:role="line"
         id="tspan3915"
         x="-55.099232"
         y="-20.168797" /></text>
    <path
       style="fill:none;stroke:#0073bc;stroke-width:12.49194145;stroke-linecap:round;stroke-linejoin:round;stroke-miterlimit:4;stroke-opacity:1;stroke-dasharray:none"
       d="m 46.753246,154.54545 c 9.876003,-5.62646 22.37968,-5.56314 28.200372,-3.33951 7.334921,10.63698 8.911155,21.27396 7.42115,31.91094 -4.87624,5.57144 -22.335211,7.78536 -32.653061,3.71058 -5.907476,-6.79094 -5.56656,-16.72842 -2.597403,-22.26345 7.856969,-4.98245 15.393134,-6.11525 22.263451,0.74211 -0.704141,4.54763 -2.184609,8.51099 -7.421151,9.6475"
       id="path3964"
       inkscape:connector-curvature="0"
       transform="matrix(0.64041284,0,0,0.64041284,27.201333,909.11194)"
       sodipodi:nodetypes="ccccccc" />
    <path
       transform="matrix(0.64041284,0,0,0.64041284,27.11166,909.12968)"
       style="fill:none;stroke:#ffffff;stroke-width:7.80746365;stroke-linecap:round;stroke-linejoin:round;stroke-miterlimit:4;stroke-opacity:1;stroke-dasharray:none"
       d="m 46.753246,154.54545 c 9.876003,-5.62646 22.37968,-5.56314 28.200372,-3.33951 7.334921,10.63698 8.911155,21.27396 7.42115,31.91094 -4.87624,5.57144 -22.335211,7.78536 -32.653061,3.71058 -5.907476,-6.79094 -5.56656,-16.72842 -2.597403,-22.26345 7.856969,-4.98245 15.393134,-6.11525 22.263451,0.74211 -0.704141,4.54763 -2.184609,8.51099 -7.421151,9.6475"
       id="path3964-1"
       inkscape:connector-curvature="0"
       sodipodi:nodetypes="ccccccc" />
  </g>
</svg>
