<?xml version="1.0" encoding="UTF-8" standalone="no"?>
<!-- Created with Inkscape (http://www.inkscape.org/) -->

<svg
   xmlns:dc="http://purl.org/dc/elements/1.1/"
   xmlns:cc="http://creativecommons.org/ns#"
   xmlns:rdf="http://www.w3.org/1999/02/22-rdf-syntax-ns#"
   xmlns:svg="http://www.w3.org/2000/svg"
   xmlns="http://www.w3.org/2000/svg"
   xmlns:sodipodi="http://sodipodi.sourceforge.net/DTD/sodipodi-0.dtd"
   xmlns:inkscape="http://www.inkscape.org/namespaces/inkscape"
   width="100"
   height="100"
   id="svg3872"
   version="1.1"
   inkscape:version="0.48.4 r9939"
   sodipodi:docname="GIRAF.svg"
   inkscape:export-filename="/home/mathias/icons/100x100/GIRAF_100x100.png"
   inkscape:export-xdpi="90"
   inkscape:export-ydpi="90">
  <defs
     id="defs3874" />
  <sodipodi:namedview
     id="base"
     pagecolor="#ffffff"
     bordercolor="#666666"
     borderopacity="1.0"
     inkscape:pageopacity="0.0"
     inkscape:pageshadow="2"
     inkscape:zoom="2.8"
     inkscape:cx="109.18928"
     inkscape:cy="90.862566"
     inkscape:document-units="px"
     inkscape:current-layer="layer1"
     showgrid="false"
     inkscape:window-width="1215"
     inkscape:window-height="776"
     inkscape:window-x="1089"
     inkscape:window-y="504"
     inkscape:window-maximized="1" />
  <metadata
     id="metadata3877">
    <rdf:RDF>
      <cc:Work
         rdf:about="">
        <dc:format>image/svg+xml</dc:format>
        <dc:type
           rdf:resource="http://purl.org/dc/dcmitype/StillImage" />
        <dc:title></dc:title>
      </cc:Work>
    </rdf:RDF>
  </metadata>
  <g
     inkscape:label="Layer 1"
     inkscape:groupmode="layer"
     id="layer1"
     transform="translate(0,-952.36218)">
    <path
       style="fill:#e4ec06;fill-opacity:1;stroke:#000000;stroke-width:0.07527116;stroke-linecap:butt;stroke-linejoin:miter;stroke-miterlimit:4;stroke-opacity:1;stroke-dasharray:none;display:inline"
       d="m 433.03125,409.15625 c -2.65991,0 -4.8125,2.15259 -4.8125,4.8125 0,1.31426 0.52151,2.506 1.375,3.375 -2.93866,-0.78283 -5.97316,-0.68163 -9.03125,-0.0312 0.74627,-0.84828 1.21875,-1.93762 1.21875,-3.15625 0,-2.65991 -2.15259,-4.8125 -4.8125,-4.8125 -2.65991,0 -4.8125,2.15259 -4.8125,4.8125 0,2.17848 1.45267,3.99882 3.4375,4.59375 -1.48681,0.52808 -2.97351,1.12073 -4.46875,1.75 -8.79934,-0.55252 -16.87658,0.36812 -20.6875,10.125 5.17054,1.38162 10.42491,1.41211 14.25,-0.90625 -5.23066,15.51226 11.46627,28.91828 21.09375,29.6875 8.37316,-0.62064 25.12325,-16.76127 18.875,-29.6875 4.54569,1.30104 8.89181,2.84376 13.4375,0.375 -4.00366,-8.80981 -10.68978,-9.88976 -21.1875,-8.5625 -1.23256,-1.15529 -2.511,-2.047 -3.78125,-2.75 2.61701,-0.0495 4.71875,-2.18364 4.71875,-4.8125 0,-2.65991 -2.15259,-4.8125 -4.8125,-4.8125 z"
       id="path3816"
       inkscape:connector-curvature="0"
       transform="matrix(1.3284465,0,0,1.3286142,-513.61283,425.92595)"
       sodipodi:nodetypes="csccssscccccccccscc" />
  </g>
</svg>
