<?xml version="1.0" encoding="UTF-8" standalone="no"?>
<!-- Created with Inkscape (http://www.inkscape.org/) -->

<svg
   xmlns:dc="http://purl.org/dc/elements/1.1/"
   xmlns:cc="http://creativecommons.org/ns#"
   xmlns:rdf="http://www.w3.org/1999/02/22-rdf-syntax-ns#"
   xmlns:svg="http://www.w3.org/2000/svg"
   xmlns="http://www.w3.org/2000/svg"
   xmlns:sodipodi="http://sodipodi.sourceforge.net/DTD/sodipodi-0.dtd"
   xmlns:inkscape="http://www.inkscape.org/namespaces/inkscape"
   width="100"
   height="100"
   id="svg2"
   version="1.1"
   inkscape:version="0.48.4 r9939"
   sodipodi:docname="New document 1">
  <defs
     id="defs4" />
  <sodipodi:namedview
     id="base"
     pagecolor="#ffffff"
     bordercolor="#666666"
     borderopacity="1.0"
     inkscape:pageopacity="0.0"
     inkscape:pageshadow="2"
     inkscape:zoom="3.8113056"
     inkscape:cx="56.869409"
     inkscape:cy="57.40685"
     inkscape:document-units="px"
     inkscape:current-layer="layer1"
     showgrid="false"
     inkscape:window-width="1024"
     inkscape:window-height="1256"
     inkscape:window-x="0"
     inkscape:window-y="24"
     inkscape:window-maximized="1" />
  <metadata
     id="metadata7">
    <rdf:RDF>
      <cc:Work
         rdf:about="">
        <dc:format>image/svg+xml</dc:format>
        <dc:type
           rdf:resource="http://purl.org/dc/dcmitype/StillImage" />
        <dc:title></dc:title>
      </cc:Work>
    </rdf:RDF>
  </metadata>
  <g
     inkscape:label="Layer 1"
     inkscape:groupmode="layer"
     id="layer1"
     transform="translate(0,-952.36218)">
    <g
       id="g3793"
       transform="matrix(1.0234375,0,0,1.0234375,0.1249845,-22.613935)">
      <path
         sodipodi:nodetypes="ccccccccc"
         transform="matrix(0.87883214,-0.7374277,0.98168384,1.1699253,-57.418047,964.7533)"
         inkscape:connector-curvature="0"
         id="path3755"
         d="m 45.511132,90.8525 10,0 0,-25 -3,-1.5 0,-5.5 -4,0 0,5.5 -3,1.5 z"
         style="fill:#000000;fill-opacity:1;stroke:#000000;stroke-width:1px;stroke-linecap:butt;stroke-linejoin:miter;stroke-opacity:1" />
      <g
         transform="matrix(0.86940271,-0.50194992,0.50194992,0.86940271,-514.17547,165.83301)"
         id="g3779">
        <path
           sodipodi:type="arc"
           style="fill:#d2d2d2;fill-opacity:1;stroke:#000000;stroke-width:3.70287538;stroke-miterlimit:4;stroke-opacity:1;stroke-dasharray:none"
           id="path3753-2"
           sodipodi:cx="48.701298"
           sodipodi:cy="54.267162"
           sodipodi:rx="35.528755"
           sodipodi:ry="35.528755"
           d="m 84.230053,54.267162 c 0,19.62199 -15.906766,35.528756 -35.528755,35.528756 -19.62199,0 -35.528755,-15.906766 -35.528755,-35.528756 0,-19.621989 15.906765,-35.528755 35.528755,-35.528755 19.621989,0 35.528755,15.906766 35.528755,35.528755 z"
           transform="matrix(0.54012078,0,0,0.54012078,40.48577,951.62278)" />
        <path
           style="fill:#e6e6e6;fill-opacity:1;stroke:none"
           d="m 51.34375,-2.4375 c -6.441084,0 -12.113205,3.19390005 -15.59375,8.0625 1.798945,1.4582907 4.161601,2.34375 6.75,2.34375 5.635559,0 10.1875,-4.2005323 10.1875,-9.375 0,-0.333893 -0.0254,-0.6438795 -0.0625,-0.96875 -0.427721,-0.028484 -0.846315,-0.0625 -1.28125,-0.0625 z"
           transform="translate(15.862708,965.21005)"
           id="path3753"
           inkscape:connector-curvature="0" />
      </g>
    </g>
  </g>
</svg>
