<?xml version="1.0" encoding="UTF-8" standalone="no"?>
<!-- Created with Inkscape (http://www.inkscape.org/) -->

<svg
   xmlns:dc="http://purl.org/dc/elements/1.1/"
   xmlns:cc="http://creativecommons.org/ns#"
   xmlns:rdf="http://www.w3.org/1999/02/22-rdf-syntax-ns#"
   xmlns:svg="http://www.w3.org/2000/svg"
   xmlns="http://www.w3.org/2000/svg"
   xmlns:sodipodi="http://sodipodi.sourceforge.net/DTD/sodipodi-0.dtd"
   xmlns:inkscape="http://www.inkscape.org/namespaces/inkscape"
   width="100"
   height="100"
   id="svg2"
   version="1.1"
   inkscape:version="0.48.4 r9939"
   sodipodi:docname="New document 1">
  <defs
     id="defs4" />
  <sodipodi:namedview
     id="base"
     pagecolor="#ffffff"
     bordercolor="#666666"
     borderopacity="1.0"
     inkscape:pageopacity="0.0"
     inkscape:pageshadow="2"
     inkscape:zoom="1.9056528"
     inkscape:cx="3.4014012"
     inkscape:cy="58.117553"
     inkscape:document-units="px"
     inkscape:current-layer="layer1"
     showgrid="false"
     inkscape:window-width="1024"
     inkscape:window-height="1256"
     inkscape:window-x="0"
     inkscape:window-y="24"
     inkscape:window-maximized="1" />
  <metadata
     id="metadata7">
    <rdf:RDF>
      <cc:Work
         rdf:about="">
        <dc:format>image/svg+xml</dc:format>
        <dc:type
           rdf:resource="http://purl.org/dc/dcmitype/StillImage" />
        <dc:title></dc:title>
      </cc:Work>
    </rdf:RDF>
  </metadata>
  <g
     inkscape:label="Layer 1"
     inkscape:groupmode="layer"
     id="layer1"
     transform="translate(0,-952.3622)">
    <path
       style="fill:#596a79;fill-opacity:1;fill-rule:nonzero;stroke:none"
       d="m 52.234375,-10.9375 c -16.240655,0 -29.40625,13.165595 -29.40625,29.40625 0,13.456001 8.554103,24.786344 20.890625,28.28125 -1.403177,3.28935 -0.54938,2.178328 -2.597838,5.029279 C 24.775767,54.002852 10.21875,59.800138 10.21875,66.875 15.99898,66.90616 89.419978,66.83324 94.25,66.875 94.25,59.520731 80.70715,52.936865 63.347837,50.941442 61.319058,47.983176 62.204707,50.215126 60.75,46.4375 72.771464,42.634362 81.640625,31.568486 81.640625,18.46875 c 0,-16.240655 -13.165595,-29.40625 -29.40625,-29.40625 z"
       transform="matrix(1.0710301,0,0,1.0710301,-5.9445888,972.4785)"
       id="path3759"
       inkscape:connector-curvature="0"
       sodipodi:nodetypes="ssccccccss" />
  </g>
</svg>
