<?xml version="1.0" encoding="UTF-8" standalone="no"?>
<!-- Created with Inkscape (http://www.inkscape.org/) -->

<svg
   xmlns:dc="http://purl.org/dc/elements/1.1/"
   xmlns:cc="http://creativecommons.org/ns#"
   xmlns:rdf="http://www.w3.org/1999/02/22-rdf-syntax-ns#"
   xmlns:svg="http://www.w3.org/2000/svg"
   xmlns="http://www.w3.org/2000/svg"
   xmlns:sodipodi="http://sodipodi.sourceforge.net/DTD/sodipodi-0.dtd"
   xmlns:inkscape="http://www.inkscape.org/namespaces/inkscape"
   width="100"
   height="100"
   id="svg2"
   version="1.1"
   inkscape:version="0.48.4 r9939"
   sodipodi:docname="New document 1">
  <defs
     id="defs4" />
  <sodipodi:namedview
     id="base"
     pagecolor="#ffffff"
     bordercolor="#666666"
     borderopacity="1.0"
     inkscape:pageopacity="0.0"
     inkscape:pageshadow="2"
     inkscape:zoom="1.9056528"
     inkscape:cx="-19.598979"
     inkscape:cy="-63.474286"
     inkscape:document-units="px"
     inkscape:current-layer="layer1"
     showgrid="false"
     inkscape:window-width="1024"
     inkscape:window-height="1256"
     inkscape:window-x="0"
     inkscape:window-y="24"
     inkscape:window-maximized="1" />
  <metadata
     id="metadata7">
    <rdf:RDF>
      <cc:Work
         rdf:about="">
        <dc:format>image/svg+xml</dc:format>
        <dc:type
           rdf:resource="http://purl.org/dc/dcmitype/StillImage" />
        <dc:title></dc:title>
      </cc:Work>
    </rdf:RDF>
  </metadata>
  <g
     inkscape:label="Layer 1"
     inkscape:groupmode="layer"
     id="layer1"
     transform="translate(0,-952.36218)">
    <path
       sodipodi:type="arc"
       style="fill:#3aaa35;fill-opacity:1;fill-rule:nonzero;stroke:#000000;stroke-width:0.18223047000000001;stroke-miterlimit:4;stroke-dasharray:none;stroke-opacity:1"
       id="path3753"
       sodipodi:cx="53.061226"
       sodipodi:cy="64.192947"
       sodipodi:rx="41.001854"
       sodipodi:ry="41.001854"
       d="m 94.06308,64.192947 a 41.001854,41.001854 0 1 1 -82.003708,0 41.001854,41.001854 0 1 1 82.003708,0 z"
       transform="matrix(1.0975113,0,0,1.0975113,-8.235297,931.9097)" />
    <path
       style="fill:#ffffff;fill-opacity:1;stroke:#000000;stroke-width:0.23061615;stroke-linecap:butt;stroke-linejoin:round;stroke-miterlimit:4;stroke-opacity:1;stroke-dasharray:none"
       d="M 12.893325,42.800341 C 30.634221,18.95289 43.244114,-2.1378099 50.474154,1.7881549 51.722505,2.5625023 52.448217,3.0477827 52.470496,3.7758823 53.090151,24.026384 14.686257,67.430803 12.742836,66.912622 12.79193,67.097729 9.982802,67.254921 9.169136,66.620443 3.5921393,62.271626 -18.792433,40.831106 -10.575139,31.910946 -4.094215,25.034785 2.1734777,34.693667 9.8903839,42.45176 c 0.9447461,0.949788 2.5831081,0.357325 3.0029411,0.348581 z"
       id="path3768"
       inkscape:connector-curvature="0"
       transform="matrix(0.86724196,0,0,0.86724196,31.522302,973.76989)"
       sodipodi:nodetypes="ccscscsc" />
  </g>
</svg>
