<?xml version="1.0" encoding="UTF-8" standalone="no"?>
<!-- Created with Inkscape (http://www.inkscape.org/) -->

<svg
   xmlns:dc="http://purl.org/dc/elements/1.1/"
   xmlns:cc="http://creativecommons.org/ns#"
   xmlns:rdf="http://www.w3.org/1999/02/22-rdf-syntax-ns#"
   xmlns:svg="http://www.w3.org/2000/svg"
   xmlns="http://www.w3.org/2000/svg"
   xmlns:sodipodi="http://sodipodi.sourceforge.net/DTD/sodipodi-0.dtd"
   xmlns:inkscape="http://www.inkscape.org/namespaces/inkscape"
   width="100"
   height="100"
   id="svg2"
   version="1.1"
   inkscape:version="0.48.4 r9939"
   sodipodi:docname="parent.svg">
  <defs
     id="defs4" />
  <sodipodi:namedview
     id="base"
     pagecolor="#ffffff"
     bordercolor="#666666"
     borderopacity="1.0"
     inkscape:pageopacity="0.0"
     inkscape:pageshadow="2"
     inkscape:zoom="3.97"
     inkscape:cx="50"
     inkscape:cy="50"
     inkscape:document-units="px"
     inkscape:current-layer="layer1"
     showgrid="false"
     inkscape:window-width="860"
     inkscape:window-height="747"
     inkscape:window-x="65"
     inkscape:window-y="24"
     inkscape:window-maximized="0" />
  <metadata
     id="metadata7">
    <rdf:RDF>
      <cc:Work
         rdf:about="">
        <dc:format>image/svg+xml</dc:format>
        <dc:type
           rdf:resource="http://purl.org/dc/dcmitype/StillImage" />
        <dc:title />
      </cc:Work>
    </rdf:RDF>
  </metadata>
  <g
     inkscape:label="Layer 1"
     inkscape:groupmode="layer"
     id="layer1"
     transform="translate(0,-952.36218)">
    <path
       style="fill:#107e19;fill-opacity:1;stroke:#000000;stroke-width:5.18745518;stroke-linecap:round;stroke-linejoin:miter;stroke-miterlimit:4;stroke-opacity:1;stroke-dasharray:none"
       d="m 16.0401,72.180451 c 0.501253,-1.754386 19.548872,-25.56391 19.548872,-25.56391"
       id="path3778-3"
       inkscape:connector-curvature="0"
       transform="matrix(0.7322728,0.1905977,0.18257612,-0.7644456,16.180857,1059.9543)" />
    <path
       style="fill:#000000;fill-opacity:1;stroke:#000000;stroke-width:1.44426477px;stroke-linecap:butt;stroke-linejoin:miter;stroke-opacity:1"
       d="m 15,50 35,0 C 48.531237,42.590516 48.789679,36.267792 50,30 l -35,0 c 1.589262,6.112854 1.750806,12.723227 0,20 z"
       id="path3822"
       inkscape:connector-curvature="0"
       transform="matrix(0,-0.83530254,0.57393483,0,14.555138,1021.1386)"
       sodipodi:nodetypes="ccccc" />
    <path
       style="fill:#107e19;fill-opacity:1;stroke:#000000;stroke-width:5.18745518;stroke-linecap:round;stroke-linejoin:miter;stroke-miterlimit:4;stroke-opacity:1;stroke-dasharray:none"
       d="m 16.0401,72.180451 c 0.501253,-1.754386 19.548872,-25.56391 19.548872,-25.56391"
       id="path3778-3-4"
       inkscape:connector-curvature="0"
       transform="matrix(0.7322728,-0.1905977,0.18257612,0.7644456,-0.9259739,979.04335)" />
    <path
       sodipodi:type="arc"
       style="fill:#000000;fill-opacity:1;fill-rule:nonzero;stroke:#000000;stroke-width:5.06122446;stroke-linecap:butt;stroke-linejoin:round;stroke-miterlimit:4;stroke-opacity:1;stroke-dasharray:none;stroke-dashoffset:0"
       id="path3842"
       sodipodi:cx="62.406013"
       sodipodi:cy="25.313284"
       sodipodi:rx="7.7694235"
       sodipodi:ry="7.7694235"
       d="m 70.175437,25.313284 a 7.7694235,7.7694235 0 1 1 -15.538847,0 7.7694235,7.7694235 0 1 1 15.538847,0 z"
       transform="matrix(0.79032258,0,0,0.79032258,-11.350958,950.27632)" />
    <path
       style="fill:#107e19;fill-opacity:1;stroke:#000000;stroke-width:5.18745518;stroke-linecap:round;stroke-linejoin:miter;stroke-miterlimit:4;stroke-opacity:1;stroke-dasharray:none"
       d="m 16.0401,72.180451 c 0.501253,-1.754386 19.548872,-25.56391 19.548872,-25.56391"
       id="path3778-3-43"
       inkscape:connector-curvature="0"
       transform="matrix(0.75424487,0.06054425,0.04705779,-0.78453596,27.981294,1036.363)" />
    <path
       style="fill:#107e19;fill-opacity:1;stroke:#000000;stroke-width:5.18745518;stroke-linecap:round;stroke-linejoin:miter;stroke-miterlimit:4;stroke-opacity:1;stroke-dasharray:none"
       d="m 16.0401,72.180451 c 0.501253,-1.754386 19.548872,-25.56391 19.548872,-25.56391"
       id="path3778-3-43-4"
       inkscape:connector-curvature="0"
       transform="matrix(0.75589837,-0.0341846,0.01964921,0.78570034,3.9797,945.11086)" />
    <path
       style="fill:#107e19;fill-opacity:1;stroke:#000000;stroke-width:5.81688404;stroke-linecap:round;stroke-linejoin:miter;stroke-miterlimit:4;stroke-opacity:1;stroke-dasharray:none"
       d="m 16.0401,72.180451 c 0.501253,-1.754386 19.548872,-25.56391 19.548872,-25.56391"
       id="path3778-3-0"
       inkscape:connector-curvature="0"
       transform="matrix(0.32576461,0.08518331,0.08122224,-0.3416516,62.13021,1044.4731)" />
    <path
       style="fill:#000000;fill-opacity:1;stroke:#000000;stroke-width:3.23901439px;stroke-linecap:butt;stroke-linejoin:miter;stroke-opacity:1"
       d="m 15,50 35,0 C 48.531237,42.590516 48.789679,36.267792 50,30 l -35,0 c 1.589262,6.112854 1.750806,12.723227 0,20 z"
       id="path3822-3"
       inkscape:connector-curvature="0"
       transform="matrix(0,-0.37331949,0.25532514,0,60.903201,1027.3105)"
       sodipodi:nodetypes="ccccc" />
    <path
       style="fill:#107e19;fill-opacity:1;stroke:#000000;stroke-width:5.81688404;stroke-linecap:round;stroke-linejoin:miter;stroke-miterlimit:4;stroke-opacity:1;stroke-dasharray:none"
       d="m 16.0401,72.180451 c 0.501253,-1.754386 19.548872,-25.56391 19.548872,-25.56391"
       id="path3778-3-4-2"
       inkscape:connector-curvature="0"
       transform="matrix(0.32576461,-0.08518331,0.08122224,0.3416516,53.741822,1008.7918)" />
    <path
       sodipodi:type="arc"
       style="fill:#000000;fill-opacity:1;fill-rule:nonzero;stroke:#000000;stroke-width:8.51300621;stroke-linecap:butt;stroke-linejoin:round;stroke-miterlimit:4;stroke-opacity:1;stroke-dasharray:none;stroke-dashoffset:0"
       id="path3842-2"
       sodipodi:cx="62.406013"
       sodipodi:cy="25.313284"
       sodipodi:rx="7.7694235"
       sodipodi:ry="7.7694235"
       d="m 70.175437,25.313284 a 7.7694235,7.7694235 0 1 1 -15.538847,0 7.7694235,7.7694235 0 1 1 15.538847,0 z"
       transform="matrix(0.35158909,0,0,0.35321672,48.98936,994.39995)" />
    <path
       style="fill:#107e19;fill-opacity:1;stroke:#000000;stroke-width:5.81688404;stroke-linecap:round;stroke-linejoin:miter;stroke-miterlimit:4;stroke-opacity:1;stroke-dasharray:none"
       d="m 16.0401,72.180451 c 0.501253,-1.754386 19.548872,-25.56391 19.548872,-25.56391"
       id="path3778-3-43-2"
       inkscape:connector-curvature="0"
       transform="matrix(0.33553928,0.02705887,0.0209345,-0.35063053,66.876066,1033.5872)" />
    <path
       style="fill:#107e19;fill-opacity:1;stroke:#000000;stroke-width:5.81688404;stroke-linecap:round;stroke-linejoin:miter;stroke-miterlimit:4;stroke-opacity:1;stroke-dasharray:none"
       d="m 16.0401,72.180451 c 0.501253,-1.754386 19.548872,-25.56391 19.548872,-25.56391"
       id="path3778-3-43-4-5"
       inkscape:connector-curvature="0"
       transform="matrix(0.04974056,0.33404254,-0.34704766,0.04600065,82.211943,994.82196)" />
  </g>
</svg>
