<?xml version="1.0" encoding="UTF-8" standalone="no"?>
<!-- Created with Inkscape (http://www.inkscape.org/) -->

<svg
   xmlns:dc="http://purl.org/dc/elements/1.1/"
   xmlns:cc="http://creativecommons.org/ns#"
   xmlns:rdf="http://www.w3.org/1999/02/22-rdf-syntax-ns#"
   xmlns:svg="http://www.w3.org/2000/svg"
   xmlns="http://www.w3.org/2000/svg"
   xmlns:sodipodi="http://sodipodi.sourceforge.net/DTD/sodipodi-0.dtd"
   xmlns:inkscape="http://www.inkscape.org/namespaces/inkscape"
   width="100"
   height="100"
   id="svg2"
   version="1.1"
   inkscape:version="0.48.4 r9939"
   sodipodi:docname="Record_icon.svg"
   inkscape:export-filename="/home/mathias/Croc/res/drawable-mdpi/record_icon.png"
   inkscape:export-xdpi="90"
   inkscape:export-ydpi="90">
  <defs
     id="defs4" />
  <sodipodi:namedview
     id="base"
     pagecolor="#ffffff"
     bordercolor="#666666"
     borderopacity="1.0"
     inkscape:pageopacity="0.0"
     inkscape:pageshadow="2"
     inkscape:zoom="6.17"
     inkscape:cx="50"
     inkscape:cy="50"
     inkscape:document-units="px"
     inkscape:current-layer="layer1"
     showgrid="false"
     inkscape:window-width="1215"
     inkscape:window-height="776"
     inkscape:window-x="65"
     inkscape:window-y="24"
     inkscape:window-maximized="1" />
  <metadata
     id="metadata7">
    <rdf:RDF>
      <cc:Work
         rdf:about="">
        <dc:format>image/svg+xml</dc:format>
        <dc:type
           rdf:resource="http://purl.org/dc/dcmitype/StillImage" />
        <dc:title></dc:title>
      </cc:Work>
    </rdf:RDF>
  </metadata>
  <g
     inkscape:label="Layer 1"
     inkscape:groupmode="layer"
     id="layer1"
     transform="translate(0,-952.36218)">
    <path
       sodipodi:type="arc"
       style="fill:none;fill-opacity:1;fill-rule:nonzero;stroke:#ff0000;stroke-width:0;stroke-linecap:round;stroke-linejoin:round;stroke-miterlimit:4;stroke-opacity:0.40182651000000003;stroke-dasharray:none"
       id="path2985-1"
       sodipodi:cx="44.975689"
       sodipodi:cy="49.351704"
       sodipodi:rx="40.437603"
       sodipodi:ry="40.437603"
       d="m 85.413292,49.351704 c 0,22.333071 -18.104532,40.437603 -40.437603,40.437603 -22.333072,0 -40.4376031,-18.104532 -40.4376031,-40.437603 0,-22.333072 18.1045311,-40.4376034 40.4376031,-40.4376034 22.333071,0 40.437603,18.1045314 40.437603,40.4376034 z"
       transform="matrix(0.98917832,0,0,0.98917832,9.4818502,951.35654)" />
    <path
       sodipodi:type="arc"
       style="fill:#000000;fill-opacity:1;fill-rule:nonzero;stroke:#ff0000;stroke-width:0;stroke-linecap:round;stroke-linejoin:round;stroke-miterlimit:4;stroke-opacity:0.40182651;stroke-dasharray:none"
       id="path2985-8"
       sodipodi:cx="44.975689"
       sodipodi:cy="49.351704"
       sodipodi:rx="40.437603"
       sodipodi:ry="40.437603"
       d="m 85.413292,49.351704 c 0,22.333071 -18.104532,40.437603 -40.437603,40.437603 -22.333072,0 -40.4376031,-18.104532 -40.4376031,-40.437603 0,-22.333072 18.1045311,-40.4376034 40.4376031,-40.4376034 22.333071,0 40.437603,18.1045314 40.437603,40.4376034 z"
       transform="matrix(0.98917832,0,0,0.98917832,5.5110238,953.54454)" />
    <path
       sodipodi:type="arc"
       style="opacity:0.86419753;fill:#ff0000;fill-opacity:1;fill-rule:nonzero;stroke:#000000;stroke-width:1.01094006999999997;stroke-linecap:round;stroke-linejoin:round;stroke-miterlimit:4;stroke-opacity:1;stroke-dasharray:none"
       id="path2985"
       sodipodi:cx="44.975689"
       sodipodi:cy="49.351704"
       sodipodi:rx="40.437603"
       sodipodi:ry="40.437603"
       d="m 85.413292,49.351704 c 0,22.333071 -18.104532,40.437603 -40.437603,40.437603 -22.333072,0 -40.4376031,-18.104532 -40.4376031,-40.437603 0,-22.333072 18.1045311,-40.4376034 40.4376031,-40.4376034 22.333071,0 40.437603,18.1045314 40.437603,40.4376034 z"
       transform="matrix(0.98917832,0,0,0.98917832,5.4299864,953.46351)" />
    <path
       sodipodi:type="arc"
       style="fill:none;stroke:#ff0000;stroke-width:5.39168024000000035;stroke-linecap:round;stroke-linejoin:round;stroke-miterlimit:4;stroke-opacity:0.40182651000000003;stroke-dasharray:none;opacity:0.50617284"
       id="path2985-3"
       sodipodi:cx="44.975689"
       sodipodi:cy="49.351704"
       sodipodi:rx="40.437603"
       sodipodi:ry="40.437603"
       d="m 85.413292,49.351704 c 0,22.333071 -18.104532,40.437603 -40.437603,40.437603 -22.333072,0 -40.4376031,-18.104532 -40.4376031,-40.437603 0,-22.333072 18.1045311,-40.4376034 40.4376031,-40.4376034 22.333071,0 40.437603,18.1045314 40.437603,40.4376034 z"
       transform="matrix(0.92735467,0,0,0.92735467,8.2915847,956.59565)" />
  </g>
</svg>
