<?xml version="1.0" encoding="UTF-8" standalone="no"?>
<!-- Created with Inkscape (http://www.inkscape.org/) -->

<svg
   xmlns:dc="http://purl.org/dc/elements/1.1/"
   xmlns:cc="http://creativecommons.org/ns#"
   xmlns:rdf="http://www.w3.org/1999/02/22-rdf-syntax-ns#"
   xmlns:svg="http://www.w3.org/2000/svg"
   xmlns="http://www.w3.org/2000/svg"
   xmlns:sodipodi="http://sodipodi.sourceforge.net/DTD/sodipodi-0.dtd"
   xmlns:inkscape="http://www.inkscape.org/namespaces/inkscape"
   width="100"
   height="100"
   id="svg2"
   version="1.1"
   inkscape:version="0.48.4 r9939"
   sodipodi:docname="New document 1">
  <defs
     id="defs4" />
  <sodipodi:namedview
     id="base"
     pagecolor="#ffffff"
     bordercolor="#666666"
     borderopacity="1.0"
     inkscape:pageopacity="0.0"
     inkscape:pageshadow="2"
     inkscape:zoom="2"
     inkscape:cx="45.352361"
     inkscape:cy="-25.062879"
     inkscape:document-units="px"
     inkscape:current-layer="layer1"
     showgrid="false"
     inkscape:window-width="1024"
     inkscape:window-height="1256"
     inkscape:window-x="0"
     inkscape:window-y="24"
     inkscape:window-maximized="1" />
  <metadata
     id="metadata7">
    <rdf:RDF>
      <cc:Work
         rdf:about="">
        <dc:format>image/svg+xml</dc:format>
        <dc:type
           rdf:resource="http://purl.org/dc/dcmitype/StillImage" />
        <dc:title></dc:title>
      </cc:Work>
    </rdf:RDF>
  </metadata>
  <g
     inkscape:label="Layer 1"
     inkscape:groupmode="layer"
     id="layer1"
     transform="translate(0,-952.36218)">
    <path
       transform="translate(0.53125,954.95593)"
       style="fill:#0000aa;fill-opacity:1;fill-rule:nonzero;stroke:#000000;stroke-width:0.2;stroke-miterlimit:4;stroke-dasharray:none;stroke-opacity:1"
       d="m 77.5,2.40625 -61.03125,0 c -6.6518803,0 -12,5.3481197 -12,12 l 0,65.96875 c 0,6.65188 5.3481197,12.03125 12,12.03125 l 66,0 c 6.65188,0 12,-5.37937 12,-12.03125 l 0,-62 C 77.41808,2.4823051 94.410074,18.416635 77.5,2.40625 z"
       id="rect3764-8"
       inkscape:connector-curvature="0"
       sodipodi:nodetypes="csssssscc" />
    <path
       style="fill:#bfbfbf;fill-opacity:1;fill-rule:nonzero;stroke:#000000;stroke-width:0.16707311999999999;stroke-miterlimit:4;stroke-dasharray:none;stroke-opacity:1"
       d="m 30.3125,2.40625 0,15.40625 c 0,3.567616 2.157782,6.4375 4.84375,6.4375 l 32.5625,0 c 2.685968,0 4.84375,-2.869884 4.84375,-6.4375 l 0,-15.40625 -42.25,0 z"
       transform="matrix(1.2590816,0,0,1.1381328,-17.700233,954.6238)"
       id="rect3764"
       inkscape:connector-curvature="0" />
    <rect
       style="fill:#0000aa;fill-opacity:1;fill-rule:nonzero;stroke:#000000;stroke-width:0.57253729;stroke-miterlimit:4;stroke-dasharray:none;stroke-opacity:1"
       id="rect3819"
       width="23.376623"
       height="70.129868"
       x="-53.803341"
       y="-56.586269"
       transform="matrix(0.43490787,0,0,0.280579,82.298129,975.84453)"
       ry="11.688312" />
    <rect
       style="fill:#ffffff;fill-opacity:1;fill-rule:nonzero;stroke:none"
       id="rect3857"
       width="87.109261"
       height="43.55463"
       x="-36.470444"
       y="-39.322338"
       transform="matrix(0.74618932,0,0,0.78530676,44.713856,1040.3801)"
       ry="0" />
    <path
       style="fill:none;stroke:#000000;stroke-width:1px;stroke-linecap:butt;stroke-linejoin:miter;stroke-opacity:1"
       d="m -37.123106,-21.622366 50.558135,0"
       id="path3895"
       inkscape:connector-curvature="0"
       transform="matrix(1.163027,0,0,1.0309749,63.722681,1039.1068)" />
    <path
       style="fill:none;stroke:#000000;stroke-width:1px;stroke-linecap:butt;stroke-linejoin:miter;stroke-opacity:1"
       d="m -37.123106,-21.622366 50.558135,0"
       id="path3895-1"
       inkscape:connector-curvature="0"
       transform="matrix(1.163027,0,0,1.0309749,63.722681,1048.1068)" />
    <path
       style="fill:none;stroke:#000000;stroke-width:1px;stroke-linecap:butt;stroke-linejoin:miter;stroke-opacity:1"
       d="m -37.123106,-21.622366 50.558135,0"
       id="path3895-1-9"
       inkscape:connector-curvature="0"
       transform="matrix(1.163027,0,0,1.0309749,63.722681,1057.1068)" />
  </g>
</svg>
