<?xml version="1.0" encoding="UTF-8" standalone="no"?>
<!-- Created with Inkscape (http://www.inkscape.org/) -->

<svg
   xmlns:osb="http://www.openswatchbook.org/uri/2009/osb"
   xmlns:dc="http://purl.org/dc/elements/1.1/"
   xmlns:cc="http://creativecommons.org/ns#"
   xmlns:rdf="http://www.w3.org/1999/02/22-rdf-syntax-ns#"
   xmlns:svg="http://www.w3.org/2000/svg"
   xmlns="http://www.w3.org/2000/svg"
   xmlns:xlink="http://www.w3.org/1999/xlink"
   xmlns:sodipodi="http://sodipodi.sourceforge.net/DTD/sodipodi-0.dtd"
   xmlns:inkscape="http://www.inkscape.org/namespaces/inkscape"
   width="100"
   height="100"
   id="svg2"
   version="1.1"
   inkscape:version="0.48.4 r9939"
   sodipodi:docname="Cartoon Settings.svg"
   inkscape:export-filename="/home/mathias/Billeder/cartoonSettings.png"
   inkscape:export-xdpi="90"
   inkscape:export-ydpi="90">
  <defs
     id="defs4">
    <linearGradient
       id="linearGradient4083"
       osb:paint="solid">
      <stop
         style="stop-color:#000000;stop-opacity:1;"
         offset="0"
         id="stop4085" />
    </linearGradient>
    <linearGradient
       inkscape:collect="always"
       xlink:href="#linearGradient4083"
       id="linearGradient4087"
       x1="2"
       y1="1002.3622"
       x2="97.999992"
       y2="1002.3622"
       gradientUnits="userSpaceOnUse" />
  </defs>
  <sodipodi:namedview
     id="base"
     pagecolor="#ffffff"
     bordercolor="#666666"
     borderopacity="1.0"
     inkscape:pageopacity="0.0"
     inkscape:pageshadow="2"
     inkscape:zoom="6.17"
     inkscape:cx="50"
     inkscape:cy="50"
     inkscape:document-units="px"
     inkscape:current-layer="layer1"
     showgrid="false"
     inkscape:window-width="1215"
     inkscape:window-height="776"
     inkscape:window-x="65"
     inkscape:window-y="24"
     inkscape:window-maximized="1"
     showguides="true"
     inkscape:guide-bbox="true" />
  <metadata
     id="metadata7">
    <rdf:RDF>
      <cc:Work
         rdf:about="">
        <dc:format>image/svg+xml</dc:format>
        <dc:type
           rdf:resource="http://purl.org/dc/dcmitype/StillImage" />
        <dc:title></dc:title>
      </cc:Work>
    </rdf:RDF>
  </metadata>
  <g
     inkscape:label="Layer 1"
     inkscape:groupmode="layer"
     id="layer1"
     transform="translate(0,-952.36218)">
    <path
       inkscape:connector-curvature="0"
       style="fill:none;stroke:#545454;stroke-width:5.07352352;stroke-linecap:butt;stroke-linejoin:miter;stroke-miterlimit:4;stroke-opacity:1"
       d="m 84.61152,988.02564 c 7.917873,19.11546 -1.159559,41.03016 -20.274972,48.94806 -19.115413,7.9178 -41.03019,-1.1595 -48.948063,-20.2749 -7.9178695,-19.11547 1.159535,-41.03028 20.274948,-48.94814 19.115413,-7.91786 41.030217,1.15955 48.948087,20.27498 z"
       id="path3757" />
    <path
       style="fill:#a0a0a0;fill-opacity:1;stroke:#545454;stroke-width:0;stroke-linecap:butt;stroke-linejoin:miter;stroke-miterlimit:4;stroke-opacity:1;stroke-dasharray:none"
       d="m 27.203101,960.39124 c 2.79165,-1.60762 5.79219,-2.97439 9.238795,-3.82684 l 5.674628,8.47351 -12.934313,5.35757 z"
       id="path3759"
       inkscape:connector-curvature="0"
       sodipodi:nodetypes="ccccc" />
    <path
       style="fill:#a0a0a0;fill-opacity:1;stroke:#545454;stroke-width:0;stroke-linecap:butt;stroke-linejoin:miter;stroke-miterlimit:4;stroke-opacity:1;stroke-dasharray:none"
       d="m 7.8969429,1025.2138 c -1.6076334,-2.7917 -2.974412,-5.7922 -3.8268403,-9.2388 l 8.4735134,-5.6746 5.357576,12.9343 z"
       id="path3759-1"
       inkscape:connector-curvature="0"
       sodipodi:nodetypes="ccccc" />
    <path
       inkscape:connector-curvature="0"
       style="fill:none;stroke:#545454;stroke-width:5.07352352;stroke-linecap:butt;stroke-linejoin:miter;stroke-miterlimit:4;stroke-opacity:1"
       d="m 35.531328,967.8054 c 19.115414,-7.91786 41.030212,1.15954 48.948078,20.27496 7.917873,19.11544 -1.159557,41.03014 -20.274971,48.94804 -19.115413,7.9179 -41.030189,-1.1595 -48.948062,-20.2749 -7.9178657,-19.11544 1.159542,-41.03024 20.274955,-48.9481 z"
       id="path3757-0" />
    <path
       style="fill:#a0a0a0;fill-opacity:1;stroke:#545454;stroke-width:0;stroke-linecap:butt;stroke-linejoin:miter;stroke-miterlimit:4;stroke-opacity:1;stroke-dasharray:none"
       d="m 72.71953,1044.52 c -2.7917,1.6076 -5.79225,2.9744 -9.238823,3.8268 l -5.674632,-8.4735 12.934342,-5.3576 z"
       id="path3759-1-4"
       inkscape:connector-curvature="0"
       sodipodi:nodetypes="ccccc" />
    <path
       inkscape:connector-curvature="0"
       style="fill:none;stroke:#545454;stroke-width:5.07352352;stroke-linecap:butt;stroke-linejoin:miter;stroke-miterlimit:4;stroke-opacity:1"
       d="m 15.443211,1016.8309 c -7.9178575,-19.11543 1.159548,-41.03024 20.274961,-48.9481 19.115413,-7.91786 41.030216,1.15955 48.948074,20.27495 7.917874,19.11545 -1.159558,41.03015 -20.274971,48.94805 -19.115413,7.9179 -41.03019,-1.1595 -48.948064,-20.2749 z"
       id="path3757-2" />
    <path
       style="fill:#a0a0a0;fill-opacity:1;stroke:#545454;stroke-width:0;stroke-linecap:butt;stroke-linejoin:miter;stroke-miterlimit:4;stroke-opacity:1;stroke-dasharray:none"
       d="m 92.157784,979.6427 c 1.607634,2.79169 2.974412,5.79225 3.826829,9.23879 l -8.473513,5.67463 -5.357565,-12.93431 z"
       id="path3759-1-5"
       inkscape:connector-curvature="0"
       sodipodi:nodetypes="ccccc" />
    <path
       inkscape:connector-curvature="0"
       style="fill:none;stroke:#000000;stroke-width:5.07352352000000018;stroke-linecap:butt;stroke-linejoin:miter;stroke-miterlimit:4;stroke-opacity:1"
       d="m 64.336568,1036.9737 c -19.115414,7.9178 -41.030189,-1.1595 -48.948063,-20.2749 -7.917873,-19.11549 1.159534,-41.03028 20.274948,-48.94815 19.115413,-7.91786 41.030212,1.15954 48.948085,20.27498 7.917874,19.11547 -1.159557,41.03017 -20.27497,48.94807 z"
       id="path3757-2-7" />
    <g
       id="g3792">
      <path
         sodipodi:nodetypes="ccccc"
         inkscape:connector-curvature="0"
         id="path3759-7"
         d="m 4.150215,988.35668 c 0.837237,-3.11075 1.9924876,-6.19891 3.8268375,-9.23879 l 10.0042465,1.97911 -5.35757,12.93431 z"
         style="fill:#000000;fill-opacity:1;stroke:#000000;stroke-width:0;stroke-linecap:butt;stroke-linejoin:miter;stroke-miterlimit:4;stroke-opacity:1;stroke-dasharray:none" />
      <path
         sodipodi:nodetypes="ccccc"
         inkscape:connector-curvature="0"
         id="path3759-9"
         d="m 7.8969452,1025.2138 c -1.607637,-2.7917 -2.9743737,-5.7921 -3.8268343,-9.2388 l 8.4735111,-5.6746 5.357569,12.9343 z"
         style="fill:#000000;fill-opacity:1;stroke:#000000;stroke-width:0;stroke-linecap:butt;stroke-linejoin:miter;stroke-miterlimit:4;stroke-opacity:1;stroke-dasharray:none" />
      <path
         sodipodi:nodetypes="ccccc"
         inkscape:connector-curvature="0"
         id="path3759-7-8"
         d="m 35.862385,1048.2667 c -3.110734,-0.8372 -6.198891,-1.9925 -9.2388,-3.8269 l 1.979129,-10.0042 12.93431,5.3576 z"
         style="fill:#000000;fill-opacity:1;stroke:#000000;stroke-width:0;stroke-linecap:butt;stroke-linejoin:miter;stroke-miterlimit:4;stroke-opacity:1;stroke-dasharray:none" />
      <path
         sodipodi:nodetypes="ccccc"
         inkscape:connector-curvature="0"
         id="path3759-4"
         d="m 72.851623,1044.4653 c -2.791661,1.6076 -5.79219,2.9744 -9.238796,3.8268 l -5.674631,-8.4735 12.934313,-5.3576 z"
         style="fill:#000000;fill-opacity:1;stroke:#000000;stroke-width:0;stroke-linecap:butt;stroke-linejoin:miter;stroke-miterlimit:4;stroke-opacity:1;stroke-dasharray:none" />
      <path
         sodipodi:nodetypes="ccccc"
         inkscape:connector-curvature="0"
         id="path3759-7-5"
         d="m 95.904524,1016.4999 c -0.83726,3.1107 -1.992507,6.1988 -3.82686,9.2387 l -10.004239,-1.9791 5.357566,-12.9343 z"
         style="fill:#000000;fill-opacity:1;stroke:#000000;stroke-width:0;stroke-linecap:butt;stroke-linejoin:miter;stroke-miterlimit:4;stroke-opacity:1;stroke-dasharray:none" />
      <path
         sodipodi:nodetypes="ccccc"
         inkscape:connector-curvature="0"
         id="path3759-4-1"
         d="m 91.970958,979.56528 c 1.607607,2.79161 2.974382,5.79217 3.826842,9.23881 l -8.473511,5.67463 -5.357576,-12.93433 z"
         style="fill:#000000;fill-opacity:1;stroke:#000000;stroke-width:0;stroke-linecap:butt;stroke-linejoin:miter;stroke-miterlimit:4;stroke-opacity:1;stroke-dasharray:none" />
      <path
         sodipodi:nodetypes="ccccc"
         inkscape:connector-curvature="0"
         id="path3759-1-5-1"
         d="m 27.148377,960.25912 c 2.791689,-1.60764 5.792251,-2.97441 9.238823,-3.82684 l 5.674628,8.47351 -12.934341,5.35758 z"
         style="fill:#000000;fill-opacity:1;stroke:#000000;stroke-width:0;stroke-linecap:butt;stroke-linejoin:miter;stroke-miterlimit:4;stroke-opacity:1;stroke-dasharray:none" />
      <path
         sodipodi:nodetypes="ccccc"
         inkscape:connector-curvature="0"
         id="path3759-7-5-5"
         d="m 64.005518,956.51239 c 3.11075,0.83724 6.198907,1.99249 9.238789,3.82684 l -1.979113,10.00424 -12.934307,-5.35756 z"
         style="fill:#000000;fill-opacity:1;stroke:#000000;stroke-width:0;stroke-linecap:butt;stroke-linejoin:miter;stroke-miterlimit:4;stroke-opacity:1;stroke-dasharray:none" />
    </g>
    <path
       id="path3869-3"
       d="m 62.934355,997.00472 c 2.958831,7.14328 -0.43336,15.33288 -7.576784,18.29178 -7.143422,2.9589 -15.333011,-0.4334 -18.291842,-7.5766 -2.959054,-7.1438 0.433154,-15.33343 7.576576,-18.29233 7.143424,-2.9589 15.332996,0.43337 18.29205,7.57715 z"
       style="fill:none;stroke:#000000;stroke-width:3;stroke-miterlimit:4;stroke-opacity:1;stroke-dasharray:none"
       inkscape:connector-curvature="0" />
    <path
       id="path3869"
       d="m 73.096991,992.79511 c 5.283749,12.75609 -0.773789,27.38029 -13.529901,32.66409 -12.756115,5.2837 -27.380326,-0.7738 -32.664075,-13.5299 -5.283809,-12.75626 0.773735,-27.38046 13.529849,-32.66422 12.756113,-5.28375 27.380317,0.77379 32.664127,13.53003 z"
       style="fill:none;stroke:#3c3c3c;stroke-width:20;stroke-miterlimit:4;stroke-opacity:1;stroke-dasharray:none"
       inkscape:connector-curvature="0" />
  </g>
</svg>
