<?xml version="1.0" encoding="UTF-8" standalone="no"?>
<!-- Created with Inkscape (http://www.inkscape.org/) -->

<svg
   xmlns:dc="http://purl.org/dc/elements/1.1/"
   xmlns:cc="http://creativecommons.org/ns#"
   xmlns:rdf="http://www.w3.org/1999/02/22-rdf-syntax-ns#"
   xmlns:svg="http://www.w3.org/2000/svg"
   xmlns="http://www.w3.org/2000/svg"
   xmlns:sodipodi="http://sodipodi.sourceforge.net/DTD/sodipodi-0.dtd"
   xmlns:inkscape="http://www.inkscape.org/namespaces/inkscape"
   width="100"
   height="100"
   id="svg2"
   version="1.1"
   inkscape:version="0.48.4 r9939"
   sodipodi:docname="New document 1">
  <defs
     id="defs4">
    <marker
       inkscape:stockid="Arrow2Mend"
       orient="auto"
       refY="0.0"
       refX="0.0"
       id="Arrow2Mend"
       style="overflow:visible;">
      <path
         id="path3808"
         style="fill-rule:evenodd;stroke-width:0.62500000;stroke-linejoin:round;"
         d="M 8.7185878,4.0337352 L -2.2072895,0.016013256 L 8.7185884,-4.0017078 C 6.9730900,-1.6296469 6.9831476,1.6157441 8.7185878,4.0337352 z "
         transform="scale(0.6) rotate(180) translate(0,0)" />
    </marker>
    <marker
       inkscape:stockid="Arrow1Lend"
       orient="auto"
       refY="0.0"
       refX="0.0"
       id="Arrow1Lend"
       style="overflow:visible;">
      <path
         id="path3784"
         d="M 0.0,0.0 L 5.0,-5.0 L -12.5,0.0 L 5.0,5.0 L 0.0,0.0 z "
         style="fill-rule:evenodd;stroke:#000000;stroke-width:1.0pt;"
         transform="scale(0.8) rotate(180) translate(12.5,0)" />
    </marker>
  </defs>
  <sodipodi:namedview
     id="base"
     pagecolor="#ffffff"
     bordercolor="#666666"
     borderopacity="1.0"
     inkscape:pageopacity="0.0"
     inkscape:pageshadow="2"
     inkscape:zoom="4.2214275"
     inkscape:cx="34.741801"
     inkscape:cy="56.070969"
     inkscape:document-units="px"
     inkscape:current-layer="layer1"
     showgrid="false"
     showguides="true"
     inkscape:guide-bbox="true"
     inkscape:window-width="1215"
     inkscape:window-height="776"
     inkscape:window-x="65"
     inkscape:window-y="24"
     inkscape:window-maximized="1" />
  <metadata
     id="metadata7">
    <rdf:RDF>
      <cc:Work
         rdf:about="">
        <dc:format>image/svg+xml</dc:format>
        <dc:type
           rdf:resource="http://purl.org/dc/dcmitype/StillImage" />
        <dc:title></dc:title>
      </cc:Work>
    </rdf:RDF>
  </metadata>
  <g
     inkscape:label="Layer 1"
     inkscape:groupmode="layer"
     id="layer1"
     transform="translate(0,-952.36218)">
    <path
       sodipodi:type="arc"
       style="fill:#e99a22;fill-opacity:1;fill-rule:nonzero;stroke:#000000;stroke-width:0.77120042000000000;stroke-linecap:round;stroke-linejoin:round;stroke-miterlimit:4;stroke-opacity:1;stroke-dasharray:none;stroke-dashoffset:0"
       id="path3753"
       sodipodi:cx="30.485762"
       sodipodi:cy="33.500839"
       sodipodi:rx="16.247906"
       sodipodi:ry="15.745394"
       d="m 46.733667,33.500839 a 16.247906,15.745394 0 1 1 -32.495811,0 16.247906,15.745394 0 1 1 32.495811,0 z"
       transform="matrix(2.2196958,0,0,2.2905371,-17.734243,933.69239)" />
    <path
       sodipodi:type="arc"
       style="fill:#ffffff;fill-opacity:1;fill-rule:nonzero;stroke:#000000;stroke-width:0.77120042;stroke-linecap:round;stroke-linejoin:round;stroke-miterlimit:4;stroke-opacity:1;stroke-dasharray:none;stroke-dashoffset:0"
       id="path3753-4"
       sodipodi:cx="30.485762"
       sodipodi:cy="33.500839"
       sodipodi:rx="16.247906"
       sodipodi:ry="15.745394"
       d="m 46.733667,33.500839 a 16.247906,15.745394 0 1 1 -32.495811,0 16.247906,15.745394 0 1 1 32.495811,0 z"
       transform="matrix(1.7440467,0,0,1.7997076,-3.233718,950.13559)" />
    <path
       sodipodi:type="arc"
       style="fill:#000000;fill-opacity:1;fill-rule:nonzero;stroke:#000000;stroke-width:2.13439631;stroke-linecap:round;stroke-linejoin:round;stroke-miterlimit:4;stroke-opacity:1;stroke-dasharray:none;stroke-dashoffset:0"
       id="path3773"
       sodipodi:cx="9.7152433"
       sodipodi:cy="15.661641"
       sodipodi:rx="2.1775544"
       sodipodi:ry="2.0938025"
       d="m 11.892798,15.661641 a 2.1775544,2.0938025 0 1 1 -4.355109,0 2.1775544,2.0938025 0 1 1 4.355109,0 z"
       transform="matrix(0.48468397,0,0,0.50407128,45.22605,1002.5327)" />
    <path
       style="fill:none;stroke:#000000;stroke-width:2.12140703;stroke-linecap:butt;stroke-linejoin:miter;stroke-miterlimit:4;stroke-opacity:1;stroke-dasharray:none;marker-end:url(#Arrow2Mend)"
       d="m 6.5326633,85.259631 0,-43.21608"
       id="path3775"
       inkscape:connector-curvature="0"
       transform="matrix(0.91390111,0.52764106,-0.26379898,0.45691323,66.716657,967.84661)" />
    <rect
       style="fill:#000000;fill-opacity:1;fill-rule:nonzero;stroke:#000000;stroke-width:0;stroke-linecap:round;stroke-linejoin:round;stroke-miterlimit:4;stroke-opacity:1;stroke-dasharray:none;stroke-dashoffset:0"
       id="rect4407"
       width="4.8576217"
       height="8.2077055"
       x="7.3701844"
       y="11.390285"
       transform="matrix(1.0862127,0,0,0.77143272,39.291079,959.42918)"
       ry="0" />
    <rect
       style="fill:#000000;fill-opacity:1;fill-rule:nonzero;stroke:#000000;stroke-width:0;stroke-linecap:round;stroke-linejoin:round;stroke-miterlimit:4;stroke-opacity:1;stroke-dasharray:none;stroke-dashoffset:0"
       id="rect4411"
       width="9.2127304"
       height="5.3601341"
       x="8.8777218"
       y="5.1926298"
       transform="matrix(1.1454607,0,0,0.98438031,34.489381,958.88337)"
       ry="2.6800671" />
    <path
       sodipodi:type="arc"
       style="fill:none;stroke:#000000;stroke-width:1.68784916;stroke-linecap:round;stroke-linejoin:round;stroke-miterlimit:4;stroke-opacity:1;stroke-dasharray:none;stroke-dashoffset:0"
       id="path4421"
       sodipodi:cx="13.065327"
       sodipodi:cy="14.40536"
       sodipodi:rx="9.3802347"
       sodipodi:ry="9.3802347"
       d="m 22.445561,14.40536 a 9.3802347,9.3802347 0 1 1 -18.760469,0 9.3802347,9.3802347 0 1 1 18.760469,0 z"
       transform="matrix(0.78617655,0,0,0.52097056,39.663219,955.28432)" />
    <path
       style="fill:none;stroke:#000000;stroke-width:1px;stroke-linecap:butt;stroke-linejoin:miter;stroke-opacity:1"
       d="m -2.1775544,24.958124 13.5678394,0"
       id="path4433"
       inkscape:connector-curvature="0"
       transform="matrix(0.67648654,0,0,1.2144207,68.278279,980.24732)" />
    <path
       style="fill:none;stroke:#000000;stroke-width:1px;stroke-linecap:butt;stroke-linejoin:miter;stroke-opacity:1"
       d="m -2.1775544,24.958124 13.5678394,0"
       id="path4433-8"
       inkscape:connector-curvature="0"
       transform="matrix(0.67648654,0,0,1.2144207,25.278279,980.24732)" />
    <path
       style="fill:none;stroke:#000000;stroke-width:1px;stroke-linecap:butt;stroke-linejoin:miter;stroke-opacity:1"
       d="m -2.1775544,24.958124 13.5678394,0"
       id="path4433-83"
       inkscape:connector-curvature="0"
       transform="matrix(0,-0.67648654,1.2144207,0,19.995531,1034.5219)" />
    <path
       style="fill:none;stroke:#000000;stroke-width:1px;stroke-linecap:butt;stroke-linejoin:miter;stroke-opacity:1"
       d="m -2.1775544,24.958124 13.5678394,0"
       id="path4433-83-8"
       inkscape:connector-curvature="0"
       transform="matrix(0,-0.67648654,1.2144207,0,19.995531,992.24382)" />
  </g>
</svg>
